<mxfile host="app.diagrams.net" modified="2023-05-24T04:07:21.747Z" agent="Mozilla/5.0 (Macintosh; Intel Mac OS X 10_15_7) AppleWebKit/537.36 (KHTML, like Gecko) Chrome/113.0.0.0 Safari/537.36" etag="1uNY-UzAs-d02nAXHHqb" version="21.2.3" type="github">
  <diagram name="Page-1" id="td61SjowARS5I_x00fJ6">
    <mxGraphModel dx="954" dy="528" grid="1" gridSize="10" guides="1" tooltips="1" connect="1" arrows="1" fold="1" page="1" pageScale="1" pageWidth="850" pageHeight="1100" math="0" shadow="0">
      <root>
        <mxCell id="0" />
        <mxCell id="1" parent="0" />
        <mxCell id="5Yfew3lBF6zwjefDzjfp-2" value="&lt;meta charset=&quot;utf-8&quot;&gt;&lt;b style=&quot;border-color: var(--border-color); color: rgb(0, 0, 0); font-family: Helvetica; font-size: 12px; font-style: normal; font-variant-ligatures: normal; font-variant-caps: normal; letter-spacing: normal; orphans: 2; text-align: left; text-indent: 0px; text-transform: none; widows: 2; word-spacing: 0px; -webkit-text-stroke-width: 0px; background-color: rgb(251, 251, 251); text-decoration-thickness: initial; text-decoration-style: initial; text-decoration-color: initial; font-weight: normal;&quot; id=&quot;docs-internal-guid-63824b85-7fff-b9de-49ca-80b747896b9b&quot;&gt;&lt;img style=&quot;border-color: var(--border-color);&quot; src=&quot;https://lh4.googleusercontent.com/QfLWO22_Tg9_bNs5C5QYXcAJm0rscJK0DstQAhR9cSlrAhOVhg6IdzpuWwW9xF_tqJeS4VtdGrfvFTwEs2R8O_tdsJXoUmFy7yV35c-d5KEc0ohglwKSW-3_tpLirZY6M5jrW1SITPXOL6e4w0SlqGJ-Bg=s2048&quot; height=&quot;253px;&quot; width=&quot;235px;&quot;&gt;&lt;/b&gt;" style="text;whiteSpace=wrap;html=1;flipH=0;flipV=0;direction=east;fillColor=default;gradientColor=none;strokeColor=none;sketch=1;curveFitting=1;jiggle=2;rounded=0;container=0;" vertex="1" parent="1">
          <mxGeometry x="260" y="380" width="270" height="280" as="geometry" />
        </mxCell>
      </root>
    </mxGraphModel>
  </diagram>
</mxfile>
